# xmcd CD database file
#
# Track frame offsets:
#	150
#	19485
#	40772
#
# Disc length: 799 seconds
#
# Revision: 0
# Processed by: cddbd v1.5.1PL2 Copyright (c) Steve Scherf et al.
# Submitted via: CDex 1.51
#
DISCID=1e031d03
DTITLE=中村雅俊 - 迷いながら〜ＪＯＭＯ　ＣＭソング〜
DYEAR=1994
DGENRE=J-POP
TTITLE0=迷いながら
TTITLE1=ガラスのほほえみ（アルバム未収録）
TTITLE2=迷いながら（オリジナル・カラオケ）
EXTD=YEAR: 1994/3/21
EXTT0=
EXTT1=
EXTT2=
PLAYORDER=
